<?xml version="1.0" encoding="UTF-8"?><svg id="Camada_1" xmlns="http://www.w3.org/2000/svg" width="194.9" height="82.09" viewBox="0 0 194.9 82.09"><rect width="167.91" height="82.09" style="fill:#0089d4;"/><rect x="26.99" width="167.91" height="82.09" style="fill:#4c4c4c;"/><path d="m42.35,72.6V10.05h12.89l5.75,29.93V10.05h12.09v62.55h-12.23l-6.26-31.31v31.31h-12.23Z" style="fill:#fff;"/><path d="m77.15,72.6V10.05h25.05v12.09h-12.31v12.16h11.8v11.8h-11.8v14.35h13.11v12.16h-25.85Z" style="fill:#fff;"/><path d="m110.58,72.6l-6.7-62.55h12.23l3.5,39.47,3.5-39.47h11.65l3.35,39.47,3.35-39.47h12.38l-6.85,62.55h-15l-3.13-30.15-2.99,30.15h-15.29Z" style="fill:#fff;"/><path d="m158.64,68.96c-2.52-2.81-3.79-7.35-3.79-13.62v-6.12h12.31v7.79c0,3.11.99,4.66,2.99,4.66,1.12,0,1.89-.33,2.33-.98.44-.66.66-1.76.66-3.31,0-2.04-.24-3.73-.73-5.06-.49-1.33-1.1-2.45-1.86-3.35-.75-.9-2.1-2.29-4.04-4.19l-5.39-5.39c-4.18-4.08-6.26-8.59-6.26-13.54,0-5.34,1.23-9.4,3.68-12.2,2.45-2.79,6.03-4.19,10.74-4.19,5.63,0,9.68,1.49,12.16,4.48,2.48,2.99,3.71,7.66,3.71,14.02h-12.74l-.07-4.3c0-.82-.23-1.48-.69-1.97-.46-.48-1.1-.73-1.93-.73-.97,0-1.7.27-2.18.8-.49.53-.73,1.26-.73,2.18,0,2.04,1.17,4.15,3.5,6.33l7.28,6.99c1.7,1.65,3.11,3.22,4.22,4.7,1.12,1.48,2.01,3.23,2.69,5.24.68,2.02,1.02,4.41,1.02,7.17,0,6.17-1.13,10.84-3.39,14.02-2.26,3.18-5.98,4.77-11.18,4.77-5.68,0-9.78-1.41-12.31-4.22Z" style="fill:#fff;"/><path d="m9,9.43h3.4v11.91h7.36v2.77h-10.75v-14.68Z" style="fill:#fff;"/><path d="m11.9,25.68h3.4v14.68h-3.4v-14.68Z" style="fill:#fff;"/><path d="m21.62,41.93l-6.35,14.68h-3.35l-6.33-14.68h3.67l4.47,10.48,4.53-10.48h3.38Z" style="fill:#fff;"/><path d="m19.66,70.14v2.73h-11.36v-14.68h11.09v2.73h-7.72v3.19h6.81v2.64h-6.81v3.4h7.99Z" style="fill:#fff;"/></svg>